<?xml version="1.0" standalone="no"?>
<!DOCTYPE svg PUBLIC "-//W3C//DTD SVG 20010904//EN"
 "http://www.w3.org/TR/2001/REC-SVG-20010904/DTD/svg10.dtd">
<svg version="1.0" xmlns="http://www.w3.org/2000/svg"
 width="1541.000000pt" height="266.000000pt" viewBox="0 0 1541.000000 266.000000"
 preserveAspectRatio="xMidYMid meet">
<metadata>
Created by potrace 1.16, written by Peter Selinger 2001-2019
</metadata>
<g transform="translate(0.000000,266.000000) scale(0.100000,-0.100000)"
fill="#000000" stroke="none">
<path d="M0 2330 l0 -330 50 0 50 0 0 -55 0 -55 1080 0 1080 0 0 330 0 330
-45 0 -45 0 0 55 0 55 -1085 0 -1085 0 0 -330z"/>
<path d="M2903 2645 c-268 -85 -476 -325 -508 -587 l-7 -58 52 0 51 0 -6 -55
-7 -55 1161 0 1161 0 0 330 0 330 -45 0 -45 0 0 55 0 55 -882 -1 c-701 -1
-892 -4 -925 -14z"/>
<path d="M5090 2330 l0 -330 45 0 45 0 0 -55 0 -55 1235 0 c1205 0 1235 0
1235 19 0 70 -87 266 -155 351 -25 30 -63 78 -85 107 -87 113 -233 214 -379
263 l-89 30 -926 0 -926 0 0 -330z"/>
<path d="M7810 1375 l0 -1285 45 0 45 0 0 -45 0 -45 940 0 940 0 0 335 0 335
-45 0 -45 0 0 55 0 55 -460 0 -460 0 0 885 0 885 -45 0 -45 0 0 55 0 55 -435
0 -435 0 0 -1285z"/>
<path d="M9870 1877 c0 -487 4 -814 11 -867 30 -247 106 -420 275 -625 143
-175 246 -256 426 -338 l93 -42 515 0 515 0 94 43 c324 146 512 383 594 746
19 87 20 129 24 924 l4 832 -45 0 -46 0 0 55 0 55 -435 0 -435 0 0 -727 c0
-401 -5 -761 -10 -801 -11 -85 -55 -186 -101 -232 -18 -17 -55 -43 -83 -57
-44 -23 -66 -27 -156 -30 -91 -3 -112 0 -160 19 -65 27 -83 56 -105 173 -12
63 -15 205 -15 811 l0 734 -45 0 -45 0 0 55 0 55 -435 0 -435 0 0 -783z"/>
<path d="M13085 2645 c-124 -40 -247 -116 -324 -201 -96 -105 -171 -259 -186
-386 l-7 -58 52 0 51 0 -6 -55 -7 -55 1161 0 1161 0 0 330 0 330 -45 0 -45 0
0 55 0 55 -882 -1 c-694 -1 -892 -4 -923 -14z"/>
<path d="M0 1385 l0 -345 50 0 50 0 0 -55 0 -55 1078 2 1077 3 3 343 2 342
-45 0 -45 0 0 55 0 55 -1085 0 -1085 0 0 -345z"/>
<path d="M2390 1713 c2 -86 78 -274 147 -361 150 -193 197 -238 312 -305 167
-98 297 -117 787 -117 396 0 377 4 355 -71 -23 -78 19 -74 -818 -77 l-743 -3
0 -344 0 -345 45 0 45 0 0 -45 0 -45 883 0 c975 0 927 -3 1075 65 313 145 484
476 443 859 -23 212 -63 301 -224 497 -111 137 -200 203 -351 259 -128 48
-164 50 -1088 50 -820 0 -868 -1 -868 -17z"/>
<path d="M12570 1716 c0 -25 20 -121 29 -141 5 -11 24 -53 42 -93 32 -72 60
-112 171 -250 93 -114 194 -186 339 -241 130 -50 250 -61 660 -61 402 0 382 4
360 -71 -23 -78 19 -74 -819 -77 l-742 -3 2 -342 3 -342 43 -3 42 -3 0 -45 0
-45 908 3 907 3 80 32 c123 50 202 101 285 184 60 60 87 98 127 175 27 55 56
123 63 152 8 28 17 52 22 52 4 0 8 99 8 220 0 121 -4 220 -8 220 -5 0 -14 23
-21 51 -18 69 -81 193 -130 254 -22 28 -59 73 -81 102 -103 134 -280 235 -471
268 -120 21 -1819 22 -1819 1z"/>
<path d="M5090 865 l0 -775 45 0 45 0 0 -45 0 -45 435 0 435 0 -2 420 -3 419
455 3 455 3 100 28 c168 48 279 111 390 223 93 94 182 266 200 387 l7 47 -55
0 -55 0 9 38 c5 20 9 45 9 55 0 16 -65 17 -1235 17 l-1235 0 0 -775z"/>
<path d="M0 435 l0 -345 50 0 50 0 0 -45 0 -45 1080 0 1080 0 0 335 0 335 -45
0 -45 0 0 55 0 55 -1085 0 -1085 0 0 -345z"/>
</g>
</svg>
